<?xml version="1.0" encoding="UTF-8" standalone="no"?>
<!-- Created with Inkscape (http://www.inkscape.org/) -->

<svg
   width="120"
   height="120"
   viewBox="0 0 120 120"
   version="1.1"
   id="svg5"
   inkscape:version="1.1.1 (1:1.1+202109281949+c3084ef5ed)"
   sodipodi:docname="account.svg"
   xmlns:inkscape="http://www.inkscape.org/namespaces/inkscape"
   xmlns:sodipodi="http://sodipodi.sourceforge.net/DTD/sodipodi-0.dtd"
   xmlns="http://www.w3.org/2000/svg"
   xmlns:svg="http://www.w3.org/2000/svg">
  <sodipodi:namedview
     id="namedview7"
     pagecolor="#ffffff"
     bordercolor="#666666"
     borderopacity="1.0"
     inkscape:pageshadow="2"
     inkscape:pageopacity="0.0"
     inkscape:pagecheckerboard="0"
     inkscape:document-units="px"
     showgrid="false"
     inkscape:zoom="5.8916667"
     inkscape:cx="60.084866"
     inkscape:cy="60.084866"
     inkscape:window-width="1920"
     inkscape:window-height="1020"
     inkscape:window-x="0"
     inkscape:window-y="28"
     inkscape:window-maximized="1"
     inkscape:current-layer="layer1" />
  <defs
     id="defs2" />
  <g
     inkscape:label="Layer 1"
     inkscape:groupmode="layer"
     id="layer1">
    <path
       d="m 109.62929,107.48749 c 0,0.85241 -0.43612,1.63418 -1.30818,2.3448 -0.8721,0.7106 -2.21282,1.29669 -4.02155,1.75873 -1.80873,0.46208 -3.66597,0.88854 -5.571733,1.27941 -1.905756,0.39086 -4.344597,0.69282 -7.316512,0.9058 -2.971369,0.2135 -5.55575,0.37313 -7.752031,0.47981 -2.196831,0.10619 -5.023215,0.19514 -8.479156,0.26635 -3.45649,0.0712 -6.07284,0.10673 -7.849605,0.10673 H 52.698321 l -7.849214,-0.10668 -8.479051,-0.26635 -7.752298,-0.47986 -7.316243,-0.9058 -5.571956,-1.27941 -4.02155,-1.75873 -1.308175,-2.3448 c 0.129199,-6.25368 3.682353,-11.778948 10.659394,-16.575304 6.977097,-4.796879 15.827651,-7.976828 26.551654,-9.540378 v -3.517464 c -3.359359,-1.63419 -6.266451,-3.943938 -8.721334,-6.928701 -2.454882,-2.98425 -4.393,-6.484443 -5.814237,-10.499548 -1.421243,-4.014579 -2.454882,-8.313815 -3.10092,-12.897505 -0.646043,-4.583539 -0.969029,-9.540118 -0.969029,-14.869795 0,-4.547953 0.807503,-8.59853 2.422571,-12.151633 1.615072,-3.553096 3.843879,-6.413327 6.686359,-8.580736 2.842538,-2.1674138 6.104983,-3.8018133 9.787273,-4.9033132 3.682353,-1.1014425 7.719888,-1.6521926 12.112992,-1.6521926 4.39311,0 8.430646,0.5507501 12.113162,1.6521926 3.681959,1.1014999 6.94441,2.7358994 9.78733,4.9033132 2.842375,2.167409 5.071181,5.02764 6.685861,8.580736 1.615241,3.553103 2.422855,7.60368 2.422855,12.151633 0,24.872009 -6.201841,40.007792 -18.605522,45.408519 v 3.304494 c 10.723946,1.56355 19.574662,4.743499 26.551593,9.540378 6.976934,4.796356 10.530444,10.321624 10.659454,16.575304 z"
       stroke="#fecb2f"
       stroke-width="10.7418"
       id="path2"
       style="fill:none;stroke:#ffffff" />
  </g>
</svg>
