<?xml version="1.0" encoding="UTF-8" standalone="no"?>
<!-- Created with Inkscape (http://www.inkscape.org/) -->

<svg
   width="120"
   height="120"
   viewBox="0 0 120 120"
   version="1.1"
   id="svg5"
   inkscape:version="1.1.1 (1:1.1+202109281949+c3084ef5ed)"
   sodipodi:docname="services.svg"
   xmlns:inkscape="http://www.inkscape.org/namespaces/inkscape"
   xmlns:sodipodi="http://sodipodi.sourceforge.net/DTD/sodipodi-0.dtd"
   xmlns="http://www.w3.org/2000/svg"
   xmlns:svg="http://www.w3.org/2000/svg">
  <sodipodi:namedview
     id="namedview7"
     pagecolor="#ffffff"
     bordercolor="#666666"
     borderopacity="1.0"
     inkscape:pageshadow="2"
     inkscape:pageopacity="0.0"
     inkscape:pagecheckerboard="0"
     inkscape:document-units="px"
     showgrid="false"
     inkscape:object-nodes="false"
     inkscape:snap-others="false"
     inkscape:snap-nodes="false"
     inkscape:zoom="5.8916667"
     inkscape:cx="57.369165"
     inkscape:cy="60.084866"
     inkscape:window-width="1920"
     inkscape:window-height="1020"
     inkscape:window-x="0"
     inkscape:window-y="28"
     inkscape:window-maximized="1"
     inkscape:current-layer="layer1" />
  <defs
     id="defs2" />
  <g
     inkscape:label="Layer 1"
     inkscape:groupmode="layer"
     id="layer1">
    <g
       id="g919"
       transform="matrix(4.8000304,0,0,4.7999991,-2.744481e-4,3.0937776e-4)"
       style="fill:#ffffff;stroke:#ffffff">
      <g
         id="g898"
         transform="translate(0,12)"
         style="fill:#ffffff;stroke:#ffffff">
        <path
           d="M 4.9999996,5.677373 C 4.2108576,5.676568 3.454295,5.394228 2.896285,4.892298 2.338276,4.390369 2.024391,3.70984 2.023496,3.000006 V 1.85255 H 0.32262701 V 0.32262701 H 3.724354 V 3.000006 c 0,0.304316 0.134404,0.596173 0.3736276,0.811365 0.239235,0.215182 0.563701,0.336079 0.902018,0.336079 0.338329,0 0.662794,-0.120897 0.902018,-0.336079 0.239235,-0.215192 0.373628,-0.507049 0.373628,-0.811365 V 0.32262701 h 3.401727 V 1.85255 h -1.700858 v 1.147456 c -9.06e-4,0.709834 -0.314791,1.390363 -0.8728,1.892292 -0.55801,0.50193 -1.314573,0.78427 -2.103715,0.785075 z"
           fill="#fecb2f"
           stroke="#fecb2f"
           stroke-width="0.645254"
           id="path890"
           style="fill:#ffffff;stroke:#ffffff" />
        <path
           d="M 12.667767,12.667767 H 10.85762 V 9.6188905 c -2.44e-4,-0.202088 -0.09568,-0.395845 -0.265355,-0.538751 -0.16969,-0.142895 -0.399761,-0.223265 -0.6397255,-0.223471 h -1.810147 v 3.8110985 h -1.81016 V 7.3322325 h 3.620307 c 0.7199045,6.06e-4 1.4101185,0.241715 1.9191625,0.670415 0.509056,0.428698 0.795357,1.009969 0.796065,1.616243 z"
           fill="#fecb2f"
           stroke="#fecb2f"
           stroke-width="0.664465"
           id="path825"
           style="fill:#ffffff;stroke:#ffffff" />
        <path
           d="M 0.36885601,7.368856 H 2.631144 v 5.262288 H 0.36885601 Z"
           fill="#fecb2f"
           stroke="#fecb2f"
           stroke-width="0.737712"
           id="path2"
           style="fill:#ffffff;stroke:#ffffff" />
      </g>
      <g
         id="g908"
         transform="translate(11)"
         style="fill:#ffffff;stroke:#ffffff">
        <path
           d="m 5.3361435,16.936143 h 1.8277132 v 7.727712 H 5.3361435 Z"
           fill="#fecb2f"
           stroke="#fecb2f"
           stroke-width="0.672287"
           id="path2-6"
           style="fill:#ffffff;stroke:#ffffff" />
        <g
           id="g902"
           style="fill:#ffffff;stroke:#ffffff">
          <path
             d="m 8.0000001,7.6361654 c -0.719209,0 -1.422262,-0.213262 -2.020258,-0.612822 -0.5979946,-0.399549 -1.0640836,-0.967462 -1.3393116,-1.631904 -0.275228,-0.664442 -0.347241,-1.395579 -0.206931,-2.100944 0.14031,-0.705364 0.486643,-1.353283 0.995195,-1.861823 0.5085536,-0.50854102 1.1565026,-0.85486302 1.8618856,-0.99517302 0.705384,-0.14030701 1.436542,-0.0683 2.1010009,0.20692 0.66446,0.275222 1.232376,0.74129502 1.631948,1.33927402 0.399571,0.597979 0.612839,1.301025 0.612839,2.020203 -0.0012,0.964038 -0.384704,1.888234 -1.066399,2.569911 -0.681696,0.681665 -1.6059159,1.065156 -2.5699689,1.066358 z m 0,-5.454398 c -0.359605,0 -0.711137,0.106625 -1.010129,0.306405 -0.299004,0.199781 -0.532046,0.483737 -0.669661,0.815952 -0.137615,0.332227 -0.17362,0.697796 -0.103463,1.050472 0.07016,0.352688 0.243323,0.676647 0.4976,0.930918 0.254277,0.25427 0.578245,0.427431 0.930943,0.497586 0.352686,0.07015 0.718265,0.03415 1.050501,-0.103458 C 9.028015,5.5420294 9.311979,5.3089934 9.511764,5.0099974 9.71155,4.7110144 9.818178,4.3594904 9.818178,3.9998964 9.817699,3.5178524 9.625986,3.0556804 9.285113,2.7148174 8.9442411,2.3739544 8.4820571,2.1822454 8.0000001,2.1817674 Z"
             fill="#fecb2f"
             stroke="#fecb2f"
             stroke-width="0.727264"
             id="path890-3"
             style="fill:#ffffff;stroke:#ffffff" />
          <path
             d="M 11.276612,9.3142605 H 6.742849 c -0.481906,-0.002 -0.953105,0.13593 -1.352162,0.3945 C 4.99162,9.9673205 4.683216,10.33499 4.505695,10.76379 L 3.347773,13.5345 0.45136802,17.00078 1.705649,17.96149 4.676736,14.40606 5.997669,11.33485 c 0.05907,-0.14292 0.161755,-0.2655 0.294676,-0.35173 0.132932,-0.0862 0.28992,-0.13214 0.450504,-0.13172 h 4.533763 c 0.212922,0 0.417174,0.081 0.567789,0.22513 0.1505,0.14413 0.23513,0.33962 0.23513,0.54345 v 5.38003 h -2.40896 v 7.68576 h 1.606041 v -6.14862 h 0.802919 c 0.42584,-4e-4 0.83403,-0.16248 1.13515,-0.45066 0.30112,-0.28819 0.47049,-0.67893 0.47092,-1.08648 v -5.38003 c -6.5e-4,-0.61132 -0.25465,-1.19744 -0.70638,-1.6297095 -0.45163,-0.43227 -1.06395,-0.6754 -1.702609,-0.67601 z"
             fill="#fecb2f"
             stroke="#fecb2f"
             stroke-width="0.628478"
             id="path825-7"
             style="fill:#ffffff;stroke:#ffffff" />
        </g>
      </g>
    </g>
  </g>
</svg>
